<svg width="16" height="16" viewBox="0 0 16 16" fill="none" xmlns="http://www.w3.org/2000/svg">
<path d="M8.42565 5.82159C7.89097 5.82159 7.39026 6.02903 7.01116 6.40813C6.63384 6.78724 6.42462 7.28794 6.42462 7.82263C6.42462 8.35731 6.63384 8.85801 7.01116 9.23712C7.39026 9.61444 7.89097 9.82366 8.42565 9.82366C8.96033 9.82366 9.46104 9.61444 9.84014 9.23712C10.2175 8.85801 10.4267 8.35731 10.4267 7.82263C10.4267 7.28794 10.2175 6.78724 9.84014 6.40813C9.65498 6.22154 9.43458 6.07361 9.19176 5.97292C8.94893 5.87223 8.68852 5.82079 8.42565 5.82159ZM15.7985 10.0329L14.629 9.03326C14.6845 8.6935 14.7131 8.34658 14.7131 8.00145C14.7131 7.65632 14.6845 7.30762 14.629 6.96964L15.7985 5.97002C15.8869 5.89439 15.9501 5.79365 15.9798 5.68121C16.0095 5.56878 16.0043 5.44996 15.9648 5.34056L15.9487 5.29406C15.6269 4.39403 15.1446 3.55976 14.5253 2.83167L14.4931 2.79411C14.4179 2.70569 14.3177 2.64213 14.2056 2.6118C14.0936 2.58147 13.975 2.58581 13.8655 2.62423L12.4134 3.14103C11.8769 2.70113 11.2797 2.35421 10.6323 2.1128L10.3516 0.594588C10.3304 0.480216 10.2749 0.374997 10.1925 0.292909C10.1101 0.21082 10.0047 0.155749 9.89021 0.135012L9.84193 0.12607C8.91205 -0.0420235 7.9321 -0.0420235 7.00222 0.12607L6.95394 0.135012C6.83948 0.155749 6.73405 0.21082 6.65164 0.292909C6.56923 0.374997 6.51375 0.480216 6.49257 0.594588L6.21003 2.11995C5.56882 2.36329 4.97149 2.70936 4.44147 3.14461L2.97869 2.62423C2.86919 2.5855 2.7505 2.58101 2.63838 2.61136C2.52627 2.6417 2.42604 2.70544 2.35102 2.79411L2.31883 2.83167C1.70063 3.56053 1.21848 4.3946 0.895401 5.29406L0.879307 5.34056C0.798836 5.56409 0.865001 5.81444 1.04561 5.97002L2.22942 6.98037C2.17399 7.31656 2.14716 7.6599 2.14716 7.99966C2.14716 8.343 2.17399 8.68634 2.22942 9.01896L1.04919 10.0293C0.960843 10.1049 0.897612 10.2057 0.867905 10.3181C0.838198 10.4305 0.843422 10.5494 0.882883 10.6588L0.898977 10.7053C1.22265 11.6047 1.70011 12.4363 2.32241 13.1677L2.3546 13.2052C2.4298 13.2936 2.53003 13.3572 2.64208 13.3875C2.75413 13.4178 2.87273 13.4135 2.98227 13.3751L4.44504 12.8547C4.97794 13.2928 5.57163 13.6397 6.21361 13.8794L6.49615 15.4047C6.51733 15.5191 6.57281 15.6243 6.65522 15.7064C6.73763 15.7885 6.84306 15.8436 6.95751 15.8643L7.00579 15.8733C7.94482 16.0422 8.90648 16.0422 9.84551 15.8733L9.89379 15.8643C10.0082 15.8436 10.1137 15.7885 10.1961 15.7064C10.2785 15.6243 10.334 15.5191 10.3552 15.4047L10.6359 13.8865C11.2832 13.6433 11.8805 13.2982 12.417 12.8583L13.869 13.3751C13.9785 13.4138 14.0972 13.4183 14.2093 13.388C14.3215 13.3576 14.4217 13.2939 14.4967 13.2052L14.5289 13.1677C15.1512 12.4327 15.6287 11.6047 15.9523 10.7053L15.9684 10.6588C16.0453 10.437 15.9791 10.1885 15.7985 10.0329ZM8.42565 10.9663C6.68928 10.9663 5.28194 9.559 5.28194 7.82263C5.28194 6.08625 6.68928 4.67891 8.42565 4.67891C10.162 4.67891 11.5694 6.08625 11.5694 7.82263C11.5694 9.559 10.162 10.9663 8.42565 10.9663Z" fill="black"/>
</svg>
